Coordinates
version=1
nRows=14
nColumns=40
inDegrees=yes

Units are S.I. units (second, meters, Newtons, ...)
Angles are in degrees.

endheader
time	pelvis_tilt	pelvis_list	pelvis_rotation	pelvis_tx	pelvis_ty	pelvis_tz	hip_flexion_r	hip_adduction_r	hip_rotation_r	knee_angle_r	knee_angle_r_beta	ankle_angle_r	subtalar_angle_r	mtp_angle_r	hip_flexion_l	hip_adduction_l	hip_rotation_l	knee_angle_l	knee_angle_l_beta	ankle_angle_l	subtalar_angle_l	mtp_angle_l	lumbar_extension	lumbar_bending	lumbar_rotation	arm_flex_r	arm_add_r	arm_rot_r	elbow_flex_r	pro_sup_r	wrist_flex_r	wrist_dev_r	arm_flex_l	arm_add_l	arm_rot_l	elbow_flex_l	pro_sup_l	wrist_flex_l	wrist_dev_l
     24.23828571	     -1.35390663	     -5.21627490	     -0.63365979	      1.06331125	      0.93533740	      0.40965497	     31.85314337	     -5.38409611	     -6.75534650	     50.19273622	     50.19273622	     -0.94486242	    -13.61066688	      0.62756554	     12.51967473	     -5.85170826	     -7.36774297	     23.05014677	     23.05014677	     13.64857889	    -13.15542592	      0.71846937	    -12.48107936	      4.48078458	      1.61694939	      5.17034728	    -15.02044109	     -9.64026921	     25.40140676	     47.00277148	      0.00000000	      0.00000000	     15.91691569	    -17.08319717	      4.71380057	     51.14779367	     45.66305286	      0.00000000	      0.00000000
     24.25157143	     -1.65776644	     -5.26164413	     -1.07635681	      1.06220070	      0.93520851	      0.40989076	     31.74799691	     -5.11516915	     -7.16546613	     45.90980863	     45.90980863	     -0.51009011	    -12.49825716	      0.67056331	     12.34787043	     -5.93729353	     -7.73915347	     22.81023133	     22.81023133	     13.78979649	    -13.20169029	      0.66324342	    -12.28442910	      4.62887052	      1.56062206	      5.05073705	    -14.89294800	     -9.78109860	     25.24235689	     47.01770517	      0.00000000	      0.00000000	     16.20859445	    -17.16605105	      4.76547331	     51.51401138	     45.67202234	      0.00000000	      0.00000000
     24.26485714	     -1.73920165	     -5.32928445	     -1.47574904	      1.06130868	      0.93526069	      0.41026201	     30.97282805	     -4.81955096	     -7.79321173	     40.85211018	     40.85211018	     -1.46764393	    -11.46656348	     -3.51797645	     11.91031533	     -6.09417081	     -8.25908535	     22.56536789	     22.56536789	     13.89533025	    -12.94384634	      0.11130384	    -12.37994812	      4.71266073	      1.42977421	      5.44870489	    -14.51238932	    -12.03881496	     24.21751827	     47.21746384	      0.00000000	      0.00000000	     16.08974157	    -17.60855456	      5.50833044	     53.11681645	     45.73473218	      0.00000000	      0.00000000
     24.27814286	     -1.96833992	     -5.36667310	     -1.84966435	      1.06031699	      0.93498630	      0.41069571	     30.38206047	     -4.50025964	     -8.37471372	     35.98635523	     35.98635523	     -1.03055618	     -9.35315686	     -3.33359432	     11.68602813	     -6.18590737	     -8.58508064	     22.39298259	     22.39298259	     14.09059327	    -12.89571806	      0.01194117	    -12.30227421	      4.80951287	      1.48749990	      5.31166038	    -14.38622581	    -12.30048593	     24.16713649	     47.23150624	      0.00000000	      0.00000000	     16.48904779	    -17.52876978	      5.46802511	     53.32812332	     45.76645125	      0.00000000	      0.00000000
     24.29142857	     -2.23079339	     -5.42970569	     -2.17223948	      1.05946922	      0.93452037	      0.41128148	     29.64242474	     -4.04944716	     -8.89462291	     30.96212013	     30.96212013	     -0.74536571	     -7.27425683	     -2.81548506	     11.55114374	     -6.31929303	     -8.85427275	     22.31832145	     22.31832145	     14.29846007	    -12.90453015	     -0.12771728	    -12.14739786	      4.94107579	      1.43287953	      5.19812565	    -14.25406852	    -12.42571546	     24.19246703	     47.23473459	      0.00000000	      0.00000000	     16.75004913	    -17.46682183	      5.49973893	     53.58004629	     45.78020573	      0.00000000	      0.00000000
     24.30471429	     -2.50627849	     -5.35569500	     -2.49188716	      1.05879797	      0.93380906	      0.41193760	     28.86507560	     -3.69862296	     -9.35787968	     26.09730315	     26.09730315	     -0.57639761	     -5.03535409	     -2.09148027	     11.43683018	     -6.31303803	     -9.17661795	     22.28024935	     22.28024935	     14.53590817	    -12.87146968	     -0.31430920	    -11.90411848	      4.96094966	      1.40194740	      5.07319731	    -14.03104881	    -12.51042578	     24.25966207	     47.23294868	      0.00000000	      0.00000000	     16.99319621	    -17.42654044	      5.53626529	     53.84397505	     45.79108975	      0.00000000	      0.00000000
     24.31800000	     -2.57761643	     -5.36477266	     -2.72984007	      1.05842407	      0.93329725	      0.41270754	     27.73917678	     -3.30555509	    -10.14020848	     21.43377061	     21.43377061	     -0.44193051	     -2.30349110	     -1.04380019	     11.09083029	     -6.40797662	     -9.44876083	     22.25998544	     22.25998544	     14.83289033	    -12.70564796	     -0.57492140	    -11.95356017	      4.99014442	      1.36195573	      4.94358088	    -13.90071151	    -12.64378926	     24.43819402	     47.22861125	      0.00000000	      0.00000000	     17.18085967	    -17.31839165	      5.61112365	     54.12908291	     45.80220089	      0.00000000	      0.00000000
     24.33128571	     -2.73308367	     -5.23242851	     -2.96851270	      1.05825387	      0.93246606	      0.41357559	     26.86376859	     -3.02603746	    -10.77675141	     17.50912467	     17.50912467	     -0.38798710	     -0.00050579	      0.27064495	     10.83737087	     -6.35040048	     -9.74760415	     22.25059753	     22.25059753	     15.13162421	    -12.60608399	     -0.82358428	    -11.77629635	      4.89221602	      1.31850062	      4.78122808	    -13.67653722	    -12.73947130	     24.65850718	     47.21880756	      0.00000000	      0.00000000	     17.32263259	    -17.23215874	      5.68334067	     54.34777314	     45.81089549	      0.00000000	      0.00000000
     24.34457143	     -2.72002376	     -5.05614697	     -3.15784893	      1.05831878	      0.93178765	      0.41438735	     25.96818839	     -2.87111789	    -11.56125330	     14.46711519	     14.46711519	     -0.16448614	      2.29998145	      2.01402202	     10.41507352	     -6.23570764	    -10.04944190	     22.29654686	     22.29654686	     15.45656584	    -12.47261365	     -1.10795966	    -11.77800599	      4.82118428	      1.28192299	      4.62251912	    -13.49749391	    -12.85751763	     25.05333303	     47.20058124	      0.00000000	      0.00000000	     17.45765005	    -17.10688664	      5.77346478	     54.52259204	     45.82183189	      0.00000000	      0.00000000
     24.35785714	     -2.80640218	     -4.91614301	     -3.33893272	      1.05847537	      0.93104701	      0.41540857	     25.59385987	     -2.82790043	    -12.65973553	     12.93300492	     12.93300492	      1.43828114	      4.79504673	      7.01468102	     10.07152262	     -6.17706519	    -10.34353102	     22.27820760	     22.27820760	     15.71264895	    -12.29986379	     -1.44421130	    -11.65767631	      4.69003107	      1.43643856	      3.92408288	    -13.37129564	    -13.19636400	     26.55309271	     47.11276330	      0.00000000	      0.00000000	     17.71441992	    -16.82862457	      6.00734986	     54.49929556	     45.87595400	      0.00000000	      0.00000000
     24.37114286	     -2.90996283	     -4.75251556	     -3.50392405	      1.05880485	      0.93022074	      0.41658686	     25.15169601	     -2.65280243	    -12.92032295	     11.67779262	     11.67779262	      1.31966599	      5.19775888	      7.44983034	      9.74853612	     -6.05528063	    -10.40613633	     22.27818086	     22.27818086	     16.02246242	    -12.39574288	     -1.53679685	    -11.45051454	      4.58176872	      1.39461126	      3.90455801	    -13.17146895	    -13.16639074	     26.68724313	     47.09815193	      0.00000000	      0.00000000	     17.69872021	    -16.66063333	      6.07550955	     54.43518402	     45.87842516	      0.00000000	      0.00000000
     24.38442857	     -2.99533796	     -4.62263496	     -3.64129334	      1.05927489	      0.92937829	      0.41785397	     24.95791750	     -2.56601749	    -13.14607947	     11.56108928	     11.56108928	      1.36876561	      5.15560490	      7.46751147	      9.42239195	     -5.97976835	    -10.46622808	     22.31662005	     22.31662005	     16.33277669	    -12.50158527	     -1.64083732	    -11.22920358	      4.50927563	      1.34426429	      3.92285487	    -13.07099680	    -13.15219433	     26.73930998	     47.09368433	      0.00000000	      0.00000000	     17.65758121	    -16.50258335	      6.12084282	     54.42211742	     45.87559947	      0.00000000	      0.00000000
     24.39771429	     -2.86477289	     -4.54399201	     -3.71888451	      1.06016918	      0.92912660	      0.41919453	     24.23318048	     -2.45663395	    -13.58775839	     11.45874199	     11.45874199	      1.25684336	      5.45028917	      7.06350084	      8.70359900	     -5.94527397	    -10.63404639	     22.10223302	     22.10223302	     16.64592183	    -12.30935526	     -1.66701479	    -11.20618590	      4.51236487	      1.24270142	      3.87488259	    -12.90927068	    -13.07319001	     27.27046323	     47.05345750	      0.00000000	      0.00000000	     17.54974509	    -16.22598475	      6.09796386	     54.03852366	     45.88666256	      0.00000000	      0.00000000
     24.41100000	     -3.00961463	     -4.45203244	     -3.78572377	      1.06103397	      0.92845246	      0.42064219	     23.77821034	     -2.35526932	    -13.73438018	     11.69303349	     11.69303349	      1.18395963	      5.32670459	      7.03246305	      8.42058867	     -5.92304835	    -10.65979529	     22.12881137	     22.12881137	     16.86796636	    -12.38681085	     -1.73423353	    -10.81310793	      4.49184568	      1.24648136	      3.90080551	    -12.86760335	    -13.06488799	     27.31390806	     47.05059975	      0.00000000	      0.00000000	     17.49163156	    -16.12144653	      6.12123010	     54.02515962	     45.88468554	      0.00000000	      0.00000000
